<svg width="80" height="111" viewBox="0 0 80 111" fill="none" xmlns="http://www.w3.org/2000/svg">
<path d="M38.8273 38.8248C44.4558 5.56514 31.3799 -2.53488 21.7947 2.70463C14.1125 6.90359 15.4119 15.1093 15.4286 15.426C14.5362 15.379 6.80145 14.3082 2.71018 21.7935C-2.55093 31.4185 5.60014 44.4478 38.8273 38.8248Z" fill="white"/>
<path d="M40.7623 73.4224C43.8212 94.0299 33.6105 101.457 32.862 102.317C28.4093 107.437 36.1477 114.173 40.6031 109.05C47.3457 101.297 49.2768 90.9153 47.8275 80.1709C45.5178 79.1903 42.8876 77.2631 40.7623 73.4224Z" fill="white"/>
<path d="M58.073 77.158C65.7552 72.959 64.4558 64.7533 64.4392 64.4366C64.8096 64.4561 72.9686 65.7327 77.1574 58.0694C82.4181 48.4459 74.2685 35.415 41.0405 41.038C35.4129 74.2935 48.4851 82.3991 58.073 77.158Z" fill="white"/>
<path d="M39.2535 70.0774C37.1477 64.2991 36.1269 55.3432 38.3729 41.4926C24.0312 43.8179 15.2379 42.6007 9.7834 40.6109C-7.50678 47.2617 0.796519 66.4878 14.0763 65.7888C13.3777 79.0615 32.6035 87.3682 39.2535 70.0774Z" fill="white"/>
<path d="M41.4948 38.3704C55.3492 36.124 64.3059 37.1456 70.0837 39.252C87.3747 32.6015 79.0714 13.3749 65.7915 14.0738C66.49 0.801316 47.2631 -7.50854 40.6128 9.78113C42.7196 15.5592 43.7415 24.5161 41.4948 38.3704Z" fill="#0E4D04"/>
</svg>
